<svg width="48" height="43" viewBox="0 0 48 43" fill="none" xmlns="http://www.w3.org/2000/svg">
<path d="M10.8004 25.0667C10.991 25.2261 11.2372 25.3033 11.4848 25.2813C11.7324 25.2592 11.961 25.1397 12.1205 24.949C12.2799 24.7584 12.3571 24.5122 12.3351 24.2646C12.313 24.017 12.1935 23.7884 12.0028 23.6289C10.9371 22.7387 10.1132 21.594 9.60743 20.3008C9.10164 19.0076 8.9303 17.6076 9.10927 16.2306C9.28824 14.8536 9.81173 13.544 10.6313 12.423C11.4509 11.302 12.54 10.406 13.7978 9.81774C15.0557 9.22951 16.4417 8.96815 17.8274 9.05784C19.2131 9.14754 20.5538 9.5854 21.7253 10.3309C22.8968 11.0764 23.8613 12.1054 24.5296 13.3226C25.1978 14.5399 25.5481 15.9061 25.548 17.2947C25.548 17.5432 25.6467 17.7816 25.8225 17.9573C25.9982 18.1331 26.2366 18.2318 26.4851 18.2318C26.7337 18.2318 26.9721 18.1331 27.1478 17.9573C27.3236 17.7816 27.4223 17.5432 27.4223 17.2947C27.4223 15.5908 26.9924 13.9145 26.1724 12.4209C25.3525 10.9273 24.169 9.66468 22.7314 8.74996C21.2939 7.83524 19.6489 7.29797 17.9486 7.18789C16.2483 7.07781 14.5476 7.39847 13.0042 8.12019C11.4607 8.84192 10.1243 9.94137 9.11858 11.3168C8.11288 12.6922 7.47043 14.2991 7.25071 15.9887C7.03098 17.6784 7.24108 19.3961 7.86156 20.983C8.48204 22.5699 9.49284 23.9746 10.8004 25.0671V25.0667ZM17.2943 5.01887C17.4174 5.01887 17.5392 4.99463 17.6529 4.94753C17.7666 4.90043 17.8699 4.83141 17.957 4.74438C18.044 4.65736 18.113 4.55405 18.1601 4.44035C18.2072 4.32665 18.2315 4.20479 18.2315 4.08172V0.937143C18.2315 0.688597 18.1327 0.450231 17.957 0.274483C17.7812 0.0987344 17.5429 0 17.2943 0C17.0458 0 16.8074 0.0987344 16.6317 0.274483C16.4559 0.450231 16.3572 0.688597 16.3572 0.937143V4.08172C16.3572 4.33027 16.4559 4.56864 16.6317 4.74438C16.8074 4.92013 17.0458 5.01887 17.2943 5.01887ZM9.87645 6.32074C9.93754 6.42818 10.0193 6.52248 10.1169 6.5982C10.2146 6.67392 10.3263 6.72958 10.4456 6.76196C10.5649 6.79434 10.6894 6.80281 10.8119 6.78688C10.9345 6.77095 11.0527 6.73094 11.1597 6.66914C11.2667 6.60734 11.3605 6.52499 11.4356 6.42681C11.5106 6.32863 11.5655 6.21658 11.5971 6.09709C11.6287 5.97761 11.6364 5.85305 11.6196 5.7306C11.6029 5.60815 11.5621 5.49022 11.4996 5.3836L9.92734 2.66027C9.8658 2.55368 9.78388 2.46027 9.68624 2.38534C9.58861 2.31042 9.47717 2.25547 9.35829 2.22361C9.11821 2.15928 8.86241 2.19295 8.64715 2.31723C8.4319 2.4415 8.27483 2.64619 8.2105 2.88627C8.14617 3.12635 8.17984 3.38216 8.30411 3.59741L9.87645 6.32074ZM2.65999 9.92724L5.38332 11.4996C5.59845 11.6219 5.85323 11.6542 6.09205 11.5893C6.33087 11.5245 6.53436 11.3678 6.65809 11.1535C6.78183 10.9392 6.81578 10.6846 6.75252 10.4454C6.68927 10.2061 6.53395 10.0016 6.32046 9.87645L3.59713 8.30411C3.49051 8.24161 3.37258 8.20081 3.25013 8.18407C3.12768 8.16732 3.00312 8.17497 2.88364 8.20656C2.76415 8.23815 2.6521 8.29306 2.55392 8.36813C2.45574 8.44321 2.37339 8.53696 2.31159 8.64399C2.24979 8.75102 2.20978 8.86922 2.19385 8.99178C2.17792 9.11434 2.18639 9.23884 2.21877 9.35811C2.25115 9.47738 2.30681 9.58907 2.38253 9.68675C2.45825 9.78442 2.55255 9.86616 2.65999 9.92724ZM5.01896 17.2947C5.01896 17.0461 4.92023 16.8078 4.74448 16.632C4.56873 16.4563 4.33036 16.3575 4.08182 16.3575H0.937142C0.688597 16.3575 0.450231 16.4563 0.274483 16.632C0.0987344 16.8078 0 17.0461 0 17.2947C0 17.5432 0.0987344 17.7816 0.274483 17.9573C0.450231 18.1331 0.688597 18.2318 0.937142 18.2318H4.08182C4.33036 18.2318 4.56873 18.1331 4.74448 17.9573C4.92023 17.7816 5.01896 17.5432 5.01896 17.2947ZM6.32046 24.7122C6.53572 24.5879 6.69279 24.3832 6.75712 24.1431C6.82145 23.903 6.78778 23.6472 6.66351 23.432C6.53923 23.2167 6.33454 23.0597 6.09446 22.9953C5.85438 22.931 5.59857 22.9647 5.38332 23.0889L2.65999 24.6613C2.55255 24.7224 2.45825 24.8041 2.38253 24.9018C2.30681 24.9994 2.25115 25.1111 2.21877 25.2304C2.18639 25.3497 2.17792 25.4742 2.19385 25.5967C2.20978 25.7193 2.24979 25.8375 2.31159 25.9445C2.37339 26.0516 2.45574 26.1453 2.55392 26.2204C2.6521 26.2955 2.76415 26.3504 2.88364 26.382C3.00312 26.4136 3.12768 26.4212 3.25013 26.4045C3.37258 26.3877 3.49051 26.3469 3.59713 26.2844L6.32046 24.7122ZM23.432 6.66346C23.5386 6.72512 23.6562 6.76517 23.7783 6.78131C23.9003 6.79746 24.0244 6.78939 24.1433 6.75756C24.2622 6.72573 24.3737 6.67076 24.4714 6.59581C24.569 6.52086 24.6509 6.42739 24.7125 6.32074L26.2847 3.59741C26.407 3.38228 26.4393 3.1275 26.3744 2.88868C26.3096 2.64986 26.1529 2.44637 25.9386 2.32264C25.7243 2.1989 25.4697 2.16495 25.2305 2.22821C24.9912 2.29146 24.7867 2.44678 24.6616 2.66027L23.0889 5.3836C22.9648 5.59883 22.9312 5.85456 22.9955 6.09456C23.0598 6.33457 23.2169 6.5392 23.432 6.66346Z" fill="#606060"/>
<path d="M35.7478 28.9781C36.1147 27.1263 35.8224 25.2045 34.9215 23.5456C34.0206 21.8866 32.5678 20.5951 30.8148 19.8945C29.0619 19.194 27.1191 19.1287 25.323 19.7099C23.5269 20.2911 21.9907 21.4822 20.9804 23.0769C19.4387 22.4839 17.7277 22.5078 16.2032 23.1438C14.6788 23.7797 13.458 24.9787 12.7948 26.4916C11.6876 26.3113 10.555 26.3624 9.46845 26.6416C8.38192 26.9208 7.36501 27.4221 6.48182 28.1138C5.59863 28.8055 4.86831 29.6726 4.3369 30.6606C3.80548 31.6486 3.48449 32.7359 3.39417 33.8541C3.30384 34.9723 3.44614 36.0971 3.81208 37.1575C4.17803 38.218 4.75969 39.1911 5.5204 40.0156C6.28111 40.8401 7.20438 41.4981 8.232 41.9481C9.25962 42.3981 10.3693 42.6303 11.4911 42.6301H33.8358C35.5145 42.6301 37.1365 42.0234 38.4031 40.9217C39.6697 39.8201 40.4955 38.2979 40.7283 36.6354C40.9611 34.973 40.5853 33.2825 39.67 31.8753C38.7547 30.4681 37.3616 29.4392 35.7476 28.9781H35.7478ZM33.836 40.7558H11.4911C10.6005 40.755 9.72038 40.5638 8.90971 40.1951C8.09904 39.8263 7.37659 39.2884 6.7908 38.6176C6.20502 37.9467 5.76943 37.1584 5.51327 36.3054C5.2571 35.4524 5.18627 34.5545 5.30552 33.6719C5.42478 32.7893 5.73136 31.9424 6.20471 31.188C6.67806 30.4336 7.30724 29.7891 8.05006 29.2978C8.79288 28.8065 9.63216 28.4796 10.5116 28.3392C11.3911 28.1988 12.2904 28.248 13.1493 28.4837C13.3879 28.5492 13.6428 28.5177 13.8583 28.396C14.0737 28.2743 14.2323 28.0724 14.2995 27.8342C14.4865 27.1715 14.8217 26.5599 15.2796 26.0457C15.7376 25.5314 16.3064 25.1279 16.943 24.8656C17.5797 24.6033 18.2677 24.489 18.955 24.5315C19.6423 24.5739 20.311 24.7719 20.9106 25.1105C21.0221 25.1736 21.1454 25.2132 21.2728 25.2268C21.4003 25.2404 21.5291 25.2277 21.6515 25.1895C21.7738 25.1513 21.887 25.0884 21.9841 25.0047C22.0811 24.921 22.16 24.8183 22.2158 24.7029C22.9044 23.2798 24.1095 22.1725 25.5857 21.6065C27.062 21.0405 28.6984 21.0583 30.162 21.6563C31.6255 22.2543 32.8062 23.3876 33.4637 24.8254C34.1211 26.2633 34.206 27.8976 33.701 29.3958C33.6564 29.5274 33.6418 29.6674 33.658 29.8054C33.6743 29.9434 33.721 30.0761 33.7949 30.1939C33.8688 30.3116 33.9679 30.4115 34.0851 30.4862C34.2023 30.5609 34.3347 30.6085 34.4726 30.6258C35.7566 30.7869 36.931 31.4314 37.7563 32.4282C38.5816 33.425 38.9959 34.6989 38.9146 35.9905C38.8334 37.2821 38.2628 38.4941 37.319 39.3795C36.3753 40.265 35.1295 40.7574 33.8353 40.7563L33.836 40.7558Z" fill="#606060"/>
<path d="M42.9332 17.5357C43.3154 15.6056 42.9811 13.6023 41.9928 11.901C41.0045 10.1996 39.4301 8.91674 37.5641 8.29253C35.6982 7.66832 33.6687 7.74555 31.8556 8.50977C30.0425 9.27399 28.5701 10.6728 27.714 12.4444C27.6576 12.5554 27.6238 12.6767 27.6148 12.801C27.6057 12.9252 27.6216 13.0501 27.6614 13.1682C27.7011 13.2863 27.7641 13.3952 27.8465 13.4887C27.9289 13.5822 28.0291 13.6583 28.1413 13.7125C28.2535 13.7668 28.3753 13.7982 28.4998 13.8048C28.6242 13.8114 28.7487 13.7931 28.866 13.751C28.9833 13.7089 29.091 13.6439 29.1828 13.5596C29.2747 13.4754 29.3488 13.3737 29.4009 13.2605C30.0895 11.8373 31.2946 10.7301 32.7708 10.1641C34.247 9.59808 35.8835 9.6159 37.347 10.2139C38.8106 10.8119 39.9913 11.9452 40.6487 13.383C41.3062 14.8208 41.3911 16.4552 40.886 17.9534C40.8415 18.085 40.8269 18.225 40.8431 18.363C40.8594 18.5011 40.9061 18.6338 40.98 18.7515C41.0539 18.8692 41.153 18.9691 41.2702 19.0438C41.3875 19.1185 41.5198 19.1661 41.6578 19.1834C42.9418 19.3444 44.1161 19.989 44.9415 20.9858C45.7668 21.9826 46.1811 23.2565 46.0998 24.5481C46.0186 25.8396 45.4479 27.0516 44.5042 27.9371C43.5605 28.8226 42.3146 29.315 41.0205 29.3139C40.7719 29.3139 40.5336 29.4126 40.3578 29.5883C40.1821 29.7641 40.0834 30.0025 40.0834 30.251C40.0834 30.4995 40.1821 30.7379 40.3578 30.9137C40.5336 31.0894 40.7719 31.1881 41.0205 31.1881C42.6991 31.188 44.3211 30.5813 45.5877 29.4797C46.8542 28.378 47.68 26.8558 47.9128 25.1934C48.1456 23.531 47.7697 21.8405 46.8545 20.4333C45.9392 19.0262 44.5463 17.9972 42.9323 17.536L42.9332 17.5357Z" fill="#606060"/>
</svg>
