<svg width="800px" height="800px" viewBox="0 0 20 28" fill="none" xmlns="http://www.w3.org/2000/svg">
<path d="M19.3534 6.40499C17.8825 2.63666 14.1658 0 10.3144 0H9.70806C5.85665 0 2.14 2.63666 0.669053 6.40499C-1.49806 11.9467 2.05017 16.905 4.891 20.895L5.42997 21.665C6.74371 23.5316 8.07991 25.375 9.42734 27.2183L10 28L10.5727 27.2183C11.9201 25.3867 13.2563 23.5316 14.57 21.665L15.109 20.895C17.9498 16.905 21.4981 11.9467 19.3309 6.40499H19.3534ZM10.0225 16.3917C6.42931 16.3917 3.50988 13.3583 3.50988 9.625C3.50988 5.89167 6.42931 2.85831 10.0225 2.85831C13.6156 2.85831 16.535 5.89167 16.535 9.625C16.535 13.3583 13.6156 16.3917 10.0225 16.3917Z" fill="#107EC5"/>
<path d="M10.0216 4.60828C7.36047 4.60828 5.19336 6.85996 5.19336 9.62497C5.19336 12.39 7.36047 14.6416 10.0216 14.6416C12.6828 14.6416 14.8499 12.39 14.8499 9.62497C14.8499 6.85996 12.6828 4.60828 10.0216 4.60828Z" fill="#107EC5"/>
</svg>
